<?xml version="1.0" encoding="UTF-8"?>
<svg xmlns="http://www.w3.org/2000/svg" version="1.1" viewBox="0 0 1080 466.38">
  <defs>
    <style>
      .cls-1 {
        fill: #e1ff67;
      }

      .cls-2 {
        fill: #ececec;
      }
    </style>
  </defs>
  <!-- Generator: Adobe Illustrator 28.6.0, SVG Export Plug-In . SVG Version: 1.2.0 Build 709)  -->
  <g>
    <g id="Capa_1">
      <g>
        <path class="cls-1" d="M68.42,149.88c-3.97,0-6.61-.66-7.93-1.98-1.33-1.32-1.98-3.97-1.98-7.93v-49.58c0-3.97.66-6.61,1.98-7.93s3.97-1.98,7.93-1.98h179.69c3.97,0,7.54.4,10.71,1.19,3.17.79,6.48,2.38,9.92,4.76l58.18,42.35c4.49,2.91,7.6,7.42,9.32,10.33,1.72,2.91,2.58,6.88,2.58,11.9v55.12c0,2.91-.79,5.1-2.38,6.55-1.59,1.46-3.57,2.18-5.95,2.18s-4.76-.79-7.14-2.38l-70.48-50.68c-3.71-2.64-7.79-6.55-12.63-9.62-3.63-2.3-11.31-2.28-16.33-2.28H68.42ZM68.42,371.81c-3.97,0-6.61-.66-7.93-1.98-1.33-1.32-1.98-3.97-1.98-7.93v-49.58c0-3.97.66-6.61,1.98-7.93,1.32-1.32,3.97-1.98,7.93-1.98h168.18c3.97,0,6.48-1.05,7.54-3.17,1.05-2.11-.66-4.62-5.16-7.54l-28.16-19.04c-4.5-2.91-8.73-5.62-12.69-8.13-3.97-2.51-8.47-3.77-13.49-3.77h-115.82c-4.23,0-7.01-.66-8.33-1.98-1.33-1.32-1.98-3.97-1.98-7.93v-49.58c0-3.97.66-6.61,1.98-7.93s3.97-1.98,7.93-1.98h137.64c3.97,0,7.54.46,10.71,1.39,3.17.93,6.48,2.45,9.92,4.56l125.34,84.49c3.97,2.65,6.94,5.49,8.92,8.53,1.98,3.04,2.97,7.08,2.97,12.1v59.5c0,3.97-.66,6.61-1.98,7.93-1.33,1.33-3.97,1.98-7.93,1.98H68.42Z"/>
        <path class="cls-1" d="M360.53,80.82c1.88,0,3.4,1.53,3.4,3.4v9.35c0,1.88-1.52,3.4-3.4,3.4h-9.66c-1.88,0-3.4-1.52-3.4-3.4v-9.35c0-1.88,1.52-3.4,3.4-3.4h9.66ZM348.85,84.22v9.34c0,1.23,1,2.23,2.23,2.23h9.23c1.23,0,2.23-1,2.23-2.23v-9.34c0-1.23-1-2.23-2.23-2.23h-9.23c-1.23,0-2.23,1-2.23,2.23ZM358.72,84c1.31,0,2.38,1.06,2.38,2.38v1.57c0,1.14-.81,2.1-1.89,2.31l2.2,3.53h-2.08l-2.16-3.46h-4.45v3.46h-1.84v-9.79h7.83ZM352.73,88.69h5.43c.61,0,1.11-.5,1.11-1.11v-.84c0-.61-.5-1.11-1.11-1.11h-5.43v3.06Z"/>
      </g>
      <g>
        <g>
          <path class="cls-2" d="M444.56,218.03c6.7,0,12.13,5.43,12.13,12.13v1.19c0,4.39-2.35,8.24-5.86,10.33,4.2,1.9,7.12,6.12,7.12,11.03v1.25c0,6.7-5.43,12.13-12.13,12.13h-40.81v-48.06h39.56ZM441.54,237.83c1.99,0,3.61-1.62,3.61-3.61v-2.29c0-1.99-1.62-3.61-3.61-3.61h-25.01v9.51h25.01ZM442.8,255.8c1.99,0,3.61-1.62,3.61-3.61v-2.12c0-1.99-1.62-3.61-3.61-3.61h-26.27v9.33h26.27Z"/>
          <path class="cls-2" d="M505.19,218.03c6.7,0,12.13,5.43,12.13,12.13v8.28c0,5.64-3.87,10.38-9.1,11.69l10.8,15.96h-13.1l-10.48-15.53h-18.27v15.53h-11.53v-48.06h39.56ZM477.16,240.27h24.41c2.32,0,4.2-1.88,4.2-4.2v-3.55c0-2.32-1.88-4.2-4.2-4.2h-24.41v11.95Z"/>
          <path class="cls-2" d="M564.71,218.03c6.69,0,12.13,5.43,12.13,12.13v23.81c0,6.69-5.43,12.13-12.13,12.13h-27.43c-6.69,0-12.13-5.43-12.13-12.13v-23.81c0-6.69,5.43-12.13,12.13-12.13h27.43ZM536.69,232.52v19.08c0,2.32,1.88,4.2,4.2,4.2h20.22c2.32,0,4.2-1.88,4.2-4.2v-19.08c0-2.32-1.88-4.2-4.2-4.2h-20.22c-2.32,0-4.2,1.88-4.2,4.2Z"/>
          <path class="cls-2" d="M595.62,218.03v19.12h2.64l23.67-19.12h13.84l-28.81,24.03,29.04,24.03h-13.84l-23.85-19.12h-2.7v19.12h-11.53v-48.06h11.53Z"/>
          <path class="cls-2" d="M686.86,218.03v9.82h-33.12v9.26h31.35v9.82h-31.35v9.35h33.12v9.82h-44.66v-48.06h44.66Z"/>
          <path class="cls-2" d="M732.63,218.03c6.7,0,12.13,5.43,12.13,12.13v8.28c0,5.64-3.87,10.38-9.1,11.69l10.8,15.96h-13.1l-10.48-15.53h-18.27v15.53h-11.53v-48.06h39.56ZM704.61,240.27h24.41c2.32,0,4.2-1.88,4.2-4.2v-3.55c0-2.32-1.88-4.2-4.2-4.2h-24.41v11.95Z"/>
          <path class="cls-2" d="M791.71,218.03c6.7,0,12.13,5.43,12.13,12.13v3.92h-11.53v-1.55c-.13-2.31-1.88-4.2-4.2-4.2h-20.07c-2.2,0-3.9,1.41-3.9,3.61v1.2c0,6.28,40.74.93,40.74,16.01v4.82c0,6.7-5.43,12.13-12.13,12.13h-28.02c-6.7,0-12.13-5.43-12.13-12.13v-3.92h11.53v1.55c0,2.32,1.88,4.2,4.2,4.2h21.1c2.2,0,3.9-1.41,3.9-3.61v-1.2c0-6.58-40.74-.64-40.74-16.01v-4.82c0-6.7,5.43-12.13,12.13-12.13h26.99Z"/>
        </g>
        <g>
          <path class="cls-2" d="M416.53,283.53v48.06h-11.53v-48.06h11.53Z"/>
          <path class="cls-2" d="M437.01,283.53l27.36,33.41v-33.41h11.53v48.06h-12.79l-27.36-33.41v33.41h-11.53v-48.06h12.79Z"/>
          <path class="cls-2" d="M495.42,283.53l19.89,33.32,19.89-33.32h11.61v48.06h-11.53v-29.18l-17.37,29.18h-5.18l-17.66-29.65v29.65h-11.53v-48.06h11.9Z"/>
          <path class="cls-2" d="M593.62,283.53c6.69,0,12.13,5.43,12.13,12.13v23.81c0,6.69-5.43,12.13-12.13,12.13h-27.43c-6.69,0-12.13-5.43-12.13-12.13v-23.81c0-6.69,5.43-12.13,12.13-12.13h27.43ZM565.6,298.02v19.08c0,2.32,1.88,4.2,4.2,4.2h20.22c2.32,0,4.2-1.88,4.2-4.2v-19.08c0-2.32-1.88-4.2-4.2-4.2h-20.22c-2.32,0-4.2,1.88-4.2,4.2Z"/>
          <path class="cls-2" d="M652.55,283.53c6.7,0,12.13,5.43,12.13,12.13v1.19c0,4.39-2.35,8.24-5.86,10.33,4.2,1.9,7.12,6.12,7.12,11.03v1.25c0,6.7-5.43,12.13-12.13,12.13h-40.81v-48.06h39.56ZM649.54,303.33c1.99,0,3.61-1.62,3.61-3.61v-2.29c0-1.99-1.62-3.61-3.61-3.61h-25.01v9.51h25.01ZM650.79,321.3c1.99,0,3.61-1.62,3.61-3.61v-2.12c0-1.99-1.62-3.61-3.61-3.61h-26.27v9.33h26.27Z"/>
          <path class="cls-2" d="M685.16,283.53v48.06h-11.53v-48.06h11.53Z"/>
          <path class="cls-2" d="M704.38,283.53v38.24h33.12v9.82h-44.66v-48.06h11.53Z"/>
          <path class="cls-2" d="M756.36,283.53v48.06h-11.53v-48.06h11.53Z"/>
          <path class="cls-2" d="M800.6,283.53l26.43,48.06h-12.51l-5.1-9.68h-29.24l-5.1,9.68h-12.51l26.43-48.06h11.59ZM784.75,313.39h20.1l-10.05-19.1-10.05,19.1Z"/>
          <path class="cls-2" d="M872.74,283.53c6.7,0,12.13,5.43,12.13,12.13v8.28c0,5.64-3.87,10.38-9.1,11.69l10.8,15.96h-13.1l-10.48-15.53h-18.27v15.53h-11.53v-48.06h39.56ZM844.72,305.77h24.41c2.32,0,4.2-1.88,4.2-4.2v-3.55c0-2.32-1.88-4.2-4.2-4.2h-24.41v11.95Z"/>
          <path class="cls-2" d="M904.98,283.53v48.06h-11.53v-48.06h11.53Z"/>
          <path class="cls-2" d="M951.86,283.53c6.69,0,12.13,5.43,12.13,12.13v23.81c0,6.69-5.43,12.13-12.13,12.13h-27.43c-6.69,0-12.13-5.43-12.13-12.13v-23.81c0-6.69,5.43-12.13,12.13-12.13h27.43ZM923.84,298.02v19.08c0,2.32,1.88,4.2,4.2,4.2h20.22c2.32,0,4.2-1.88,4.2-4.2v-19.08c0-2.32-1.88-4.2-4.2-4.2h-20.22c-2.32,0-4.2,1.88-4.2,4.2Z"/>
          <path class="cls-2" d="M1010.72,283.53c6.7,0,12.13,5.43,12.13,12.13v3.92h-11.53v-1.55c-.13-2.31-1.88-4.2-4.2-4.2h-20.07c-2.2,0-3.9,1.41-3.9,3.61v1.2c0,6.28,40.74.93,40.74,16.01v4.82c0,6.7-5.43,12.13-12.13,12.13h-28.02c-6.7,0-12.13-5.43-12.13-12.13v-3.92h11.53v1.55c0,2.32,1.88,4.2,4.2,4.2h21.1c2.2,0,3.9-1.41,3.9-3.61v-1.2c0-6.58-40.74-.64-40.74-16.01v-4.82c0-6.7,5.43-12.13,12.13-12.13h26.99Z"/>
        </g>
        <g>
          <path class="cls-2" d="M412.46,349.51l10,17,10-17h4.27v22.37h-4.2v-15.55l-9.12,15.55h-1.9l-9.21-15.71v15.71h-4.2v-22.37h4.37Z"/>
          <path class="cls-2" d="M554.6,349.51v3.57h-16.38v5.76h15.42v3.57h-15.42v5.91h16.38v3.57h-20.58v-22.37h20.58ZM549.99,343.01l-7.74,4.43h-2.21l6.9-4.43h3.04Z"/>
          <path class="cls-2" d="M656.08,349.51l7.81,9.05,7.81-9.05h4.85l-9.84,11.19,9.84,11.19h-4.85l-7.81-9.05-7.81,9.05h-4.85l9.84-11.19-9.84-11.19h4.85Z"/>
          <path class="cls-2" d="M777.37,349.51v22.37h-4.2v-22.37h4.2Z"/>
          <path class="cls-2" d="M892.22,349.51c3,0,5.44,2.44,5.44,5.44v2.07h-4.2v-1.24c0-1.4-1.13-2.53-2.53-2.53h-9.87c-1.4,0-2.53,1.13-2.53,2.53v9.84c0,1.4,1.13,2.53,2.53,2.53h9.87c1.4,0,2.53-1.13,2.53-2.53v-1.24h4.2v2.07c0,3-2.44,5.44-5.44,5.44h-12.46c-3,0-5.44-2.44-5.44-5.44v-11.5c0-3,2.44-5.44,5.44-5.44h12.46Z"/>
          <path class="cls-2" d="M1012.19,349.51c3,0,5.44,2.44,5.44,5.44v11.5c0,3-2.44,5.44-5.44,5.44h-12.46c-3,0-5.44-2.44-5.44-5.44v-11.5c0-3,2.44-5.44,5.44-5.44h12.46ZM998.49,355.78v9.84c0,1.4,1.13,2.53,2.53,2.53h9.87c1.4,0,2.53-1.13,2.53-2.53v-9.84c0-1.4-1.13-2.53-2.53-2.53h-9.87c-1.4,0-2.53,1.13-2.53,2.53Z"/>
        </g>
      </g>
    </g>
  </g>
</svg>